<?xml version="1.0" standalone="no"?>
<!DOCTYPE svg PUBLIC "-//W3C//DTD SVG 20010904//EN"
 "http://www.w3.org/TR/2001/REC-SVG-20010904/DTD/svg10.dtd">
<svg version="1.0" xmlns="http://www.w3.org/2000/svg"
 width="392.000000pt" height="392.000000pt" viewBox="0 0 392.000000 392.000000"
 preserveAspectRatio="xMidYMid meet">

<g transform="translate(0.000000,392.000000) scale(0.100000,-0.100000)"
fill="#000000" stroke="none">
<path d="M776 3710 c-41 -13 -90 -48 -114 -84 -33 -48 -42 -98 -211 -1176
-249 -1584 -253 -1611 -246 -1650 10 -57 52 -115 104 -144 54 -28 -17 -16
1111 -194 1801 -285 1695 -271 1775 -230 67 35 90 83 120 256 26 147 277 1728
294 1852 6 41 33 218 61 393 55 348 57 380 35 435 -34 79 -80 108 -215 134
-194 36 -2644 419 -2670 417 -8 0 -28 -5 -44 -9z m2440 -828 c130 -67 184
-234 120 -366 -42 -87 -125 -144 -224 -155 l-53 -6 -258 -495 -259 -495 39
-44 c156 -176 27 -451 -211 -451 -204 0 -342 220 -248 396 l21 39 -81 75 c-45
41 -128 119 -186 173 -98 92 -106 98 -128 86 -35 -19 -156 -16 -196 4 -19 10
-38 14 -46 10 -7 -4 -90 -71 -185 -148 -126 -102 -170 -144 -165 -155 17 -38
16 -152 -1 -197 -55 -144 -230 -217 -370 -154 -216 96 -222 390 -10 504 31 17
58 22 120 22 70 0 87 -4 132 -29 l52 -28 163 132 c90 73 167 136 171 140 4 3
-1 26 -12 51 -14 29 -21 66 -21 109 0 188 173 318 354 266 160 -47 242 -232
170 -386 l-26 -55 139 -133 c203 -195 217 -206 244 -191 13 6 56 14 97 18 l75
6 253 485 253 485 -41 39 c-57 55 -88 126 -87 201 1 71 13 108 56 168 74 106
229 140 349 79z"/>
</g>
</svg>
